<svg id="icon-inst" viewBox="0 0 40 40" width="100%" height="100%">
	<path d="M19.52 15.368c-2.329 0-4.218 1.83-4.218 4.087 0 2.257 1.889 4.087 4.217 4.087 2.33 0 4.219-1.83 4.219-4.087 0-2.258-1.888-4.087-4.219-4.087zm8.106 2.512h-1.848c.175.571.269 1.177.269 1.802 0 3.494-2.922 6.326-6.528 6.326-3.604 0-6.527-2.832-6.527-6.326 0-.625.094-1.23.27-1.802h-1.928v8.872c.46 0 .835.376.835.835H26.79c0-.459.376-.835.835-.835V17.88zm-3.328-6.547c0 .52-.426.945-.946.945v2.264c.52 0 .946.425.946.945h2.373c0-.52.425-.944.945-.944v-2.265a.949.949 0 0 1-.946-.945h-2.372zM11.695 9h15.61C28.786 9 30 10.096 30 11.695v15.61C30 28.903 28.786 30 27.305 30h-15.61C10.213 30 9 28.903 9 27.305v-15.61C9 10.096 10.213 9 11.695 9z" fill-rule="evenodd"></path>
</svg>