<svg id="icon-vk" viewBox="0 0 40 40" width="100%" height="100%">
	<path d="M29.56 21.431c.869.849 1.787 1.648 2.567 2.583.344.415.67.843.92 1.325.354.685.033 1.439-.581 1.48l-3.818-.002c-.986.082-1.771-.315-2.432-.988-.528-.539-1.018-1.112-1.526-1.668a3.603 3.603 0 0 0-.688-.611c-.521-.339-.973-.235-1.271.309-.303.553-.373 1.165-.403 1.782-.04.898-.312 1.135-1.215 1.176-1.931.091-3.763-.201-5.464-1.175-1.501-.858-2.664-2.07-3.677-3.442-1.972-2.672-3.482-5.607-4.84-8.625-.305-.68-.081-1.045.67-1.058 1.245-.024 2.49-.022 3.738-.002.506.008.84.298 1.037.777.674 1.657 1.498 3.233 2.534 4.695.275.389.557.778.957 1.052.443.303.779.203.988-.291.132-.313.19-.649.22-.984.098-1.153.11-2.304-.061-3.452-.107-.717-.511-1.181-1.226-1.316-.365-.069-.311-.205-.133-.414.306-.359.595-.582 1.17-.582h4.316c.68.133.83.439.923 1.122l.004 4.794c-.008.265.132 1.05.609 1.226.382.124.633-.182.862-.423 1.033-1.097 1.77-2.393 2.43-3.735.292-.591.543-1.203.787-1.815.18-.455.464-.678.975-.669l4.154.004c.123 0 .248.002.367.022.7.12.892.421.676 1.104-.341 1.073-1.004 1.966-1.652 2.864-.692.959-1.433 1.884-2.12 2.848-.631.881-.581 1.325.203 2.089" fill-rule="evenodd"></path>
</svg>