<svg id="icon-youtube" viewBox="0 0 21.94 21.94" width="100%" height="100%">
			<path d="M11 0a11 11 0 1 0 11 11A11 11 0 0 0 11 0z" fill="none"></path><path d="M16.88 16.85a1.55 1.55 0 0 1-1.32 1.2 41.12 41.12 0 0 1-4.58.17 41.12 41.12 0 0 1-4.58-.17 1.55 1.55 0 0 1-1.32-1.2A13.1 13.1 0 0 1 4.85 14a13.11 13.11 0 0 1 .22-2.89 1.55 1.55 0 0 1 1.32-1.2A41.12 41.12 0 0 1 11 9.69a41.12 41.12 0 0 1 4.58.17 1.55 1.55 0 0 1 1.32 1.2 13.14 13.14 0 0 1 .19 2.94 13.1 13.1 0 0 1-.21 2.85zM5.76 11.78h.87v4.71h.82v-4.71h.89V11H5.76zm4.07 3.75c-.16.23-.32.35-.47.35s-.16-.06-.17-.17a2.28 2.28 0 0 1 0-.29v-3h-.74v3.23a2.08 2.08 0 0 0 .07.61.45.45 0 0 0 .48.3 1.19 1.19 0 0 0 .85-.5v.45h.74v-4.1h-.75zm2.88-3.17a1 1 0 0 0-.76.44V11h-.74v5.48H12v-.4a1 1 0 0 0 .76.45.59.59 0 0 0 .59-.46 3.25 3.25 0 0 0 .07-.82v-1.61a3.14 3.14 0 0 0-.07-.82.59.59 0 0 0-.63-.46zm2.36 0a1.05 1.05 0 0 0-.89.42 1.59 1.59 0 0 0-.23 1v1.43a1.58 1.58 0 0 0 .24 1 1.06 1.06 0 0 0 .9.42 1 1 0 0 0 .91-.53 1.05 1.05 0 0 0 .17-.44v-.59h-.75a4.85 4.85 0 0 1 0 .5.32.32 0 0 1-.33.3c-.25 0-.38-.19-.38-.57v-.72h1.48v-.85a1.6 1.6 0 0 0-.23-1 1 1 0 0 0-.88-.37zm.37 1.64h-.74v-.38q0-.57.37-.57c.24 0 .37.19.37.57z"></path><path d="M12.65 15.32c0 .37-.11.55-.32.55a.53.53 0 0 1-.37-.18V13.2a.53.53 0 0 1 .37-.18c.21 0 .32.19.32.56zm-.46-10.19h.75v3a1.76 1.76 0 0 0 0 .29c0 .12.08.18.18.18s.31-.12.47-.35V5.13h.75v4.13h-.75v-.45a1.2 1.2 0 0 1-.85.51.46.46 0 0 1-.48-.32 2.08 2.08 0 0 1-.07-.61zM9.37 6.48a1.6 1.6 0 0 1 .23-1 1.11 1.11 0 0 1 1.74 0 1.62 1.62 0 0 1 .23 1v1.44a1.61 1.61 0 0 1-.23 1 1.11 1.11 0 0 1-1.74 0 1.6 1.6 0 0 1-.23-1zm1.1 2.16c.24 0 .36-.19.36-.57V6.33c0-.38-.12-.57-.36-.57s-.36.19-.36.57v1.73c.01.38.12.58.36.58zm-3.1-4.92L8 5.9l.57-2.17h.84L8.36 7v2.26h-.82V7A13.64 13.64 0 0 0 7 5.26l-.5-1.54z"></path>
		</svg>