<?xml version="1.0" encoding="UTF-8"?>
<svg width="94px" height="24px" viewBox="0 0 94 24" version="1.1" xmlns="http://www.w3.org/2000/svg" xmlns:xlink="http://www.w3.org/1999/xlink">
    <!-- Generator: sketchtool 49.1 (51147) - http://www.bohemiancoding.com/sketch -->
    <title>C86F21CD-E21E-477F-A1B7-52197A6F1B4B</title>
    <desc>Created with sketchtool.</desc>
    <defs></defs>
    <g id="Symbols" stroke="none" stroke-width="1" fill="none" fill-rule="evenodd">
        <g id="Подвал" transform="translate(-1469.000000, -410.000000)" fill="#FFFFFF">
            <g id="Group">
                <g id="realweb" transform="translate(1469.000000, 410.000000)">
                    <path d="M41.8494365,17.7287678 L41.6945613,17.9663084 L41.6506414,17.9663084 L41.6506414,11.775856 L40.1419566,11.775856 L40.1419566,20.1969508 L41.4510759,20.1969508 L46.3862781,14.3976006 L46.5534817,14.1416646 L46.6035657,14.1416646 L46.6035657,20.1969508 L48.1122505,20.1969508 L48.1122505,11.775856 L46.8216238,11.775856 L41.8494365,17.7287678 Z M55.4954055,18.8092977 C55.3004631,18.8844789 54.5453502,19.1204199 53.3217591,19.1204199 C51.737563,19.1204199 50.8283454,18.5437641 50.8283454,17.5376156 C50.8283454,16.5322669 51.737563,15.9556111 53.3217591,15.9556111 C54.6956023,15.9556111 55.3983196,16.1627593 55.4954055,16.1875531 L55.4954055,18.8092977 Z M53.1614902,11.4287428 C51.3684823,11.4287428 50.2589286,12.3941015 50.2589286,12.3941015 C50.2589286,12.3941015 50.8437559,13.4346413 50.8907578,13.5154211 C51.2451986,13.3122719 51.9556211,12.8219945 53.1614902,12.8219945 C54.4151318,12.8219945 55.4954055,13.3658585 55.4954055,14.8606848 L55.4368458,14.8606848 C55.2064593,14.7687078 54.5607607,14.5783554 53.3217591,14.5783554 C50.3113242,14.5783554 49.2402967,16.1147713 49.2402967,17.5528118 C49.2402967,18.9924519 50.3113242,20.5288678 53.3217591,20.5288678 C54.2001557,20.5288678 55.0407968,20.420095 55.889143,20.1945514 C56.2274028,20.108173 56.5756793,19.9986003 56.9540063,19.8618345 L57.0033198,19.8442389 L57.0033198,14.9014746 C57.0033198,12.7916021 55.4954055,11.4287428 53.1614902,11.4287428 Z M34.1596131,19.1044239 C33.6734128,19.1044239 32.921382,18.9332667 32.3111275,18.6349413 L32.3111275,13.1155211 C33.0045985,12.9243689 33.6926759,12.8043989 34.1596131,12.8043989 C36.0789868,12.8043989 37.3680725,14.0704824 37.3680725,15.9540115 C37.3680725,17.8383404 36.0789868,19.1044239 34.1596131,19.1044239 Z M34.1596131,11.4135466 C32.4174597,11.4135466 30.8055248,12.0965759 30.8055248,12.0965759 L30.8055248,23.9816046 L32.3111275,23.9816046 L32.3111275,20.020195 L32.3874093,20.020195 C32.8897906,20.432092 33.8113365,20.4952762 34.1596131,20.4952762 C35.5126522,20.4952762 36.741637,20.0257936 37.6208041,19.1724069 C38.4799377,18.3374156 38.9538096,17.1937016 38.9538096,15.9540115 C38.9538096,14.7143214 38.4799377,13.5722069 37.6208041,12.7364159 C36.741637,11.8830292 35.5126522,11.4135466 34.1596131,11.4135466 Z M71.6008853,18.9676581 C71.0923398,18.9676581 70.1114636,18.9044739 69.514308,18.8116971 L69.514308,16.4442889 L71.6008853,16.4442889 C73.3176114,16.4442889 73.9301775,17.0873282 73.9301775,17.6911772 C73.9301775,18.2942264 73.3176114,18.9676581 71.6008853,18.9676581 Z M69.514308,13.0723319 C69.6738063,13.0475381 70.4474118,12.9411647 71.2818886,12.9411647 C73.2189844,12.9411647 73.3707775,13.7977506 73.3707775,14.052087 C73.3707775,14.3064234 73.2189844,15.1350162 71.2818886,15.1350162 L69.514308,15.1350162 L69.514308,13.0723319 Z M74.4048199,16.0035991 C74.1636461,15.8532367 73.6789868,15.7212697 73.4501414,15.7036741 L73.4501414,15.6252937 C73.7398582,15.5805049 74.0657896,15.4501375 74.309275,15.2605849 C74.5751055,15.0486378 74.8756097,14.6743314 74.8756097,14.052087 C74.8756097,12.5036741 73.5318169,11.5791052 71.2818886,11.5791052 C69.5520636,11.5791052 68.0079348,11.9246188 68.0079348,11.9246188 L68.0079348,19.9858035 C68.0079348,19.9858035 69.5605394,20.3305174 71.6008853,20.3305174 C75.1591623,20.3305174 75.4350096,18.3102224 75.4350096,17.6911772 C75.4350096,16.7290177 74.8432477,16.2763309 74.4048199,16.0035991 Z M59.5552932,12.8603849 C59.5552932,14.5247688 59.4458789,16.0571857 59.0567646,17.4888278 C58.7354564,18.6765309 57.7491864,20.0449888 57.7098897,20.1425644 L57.7098897,20.1953512 L59.3356941,20.1953512 C59.8041723,19.5779055 60.3312103,18.4757811 60.5461863,17.568008 C60.8921513,16.0603849 60.9730563,14.6231442 61.028534,13.1635091 L64.7863765,13.1635091 L64.7863765,20.1953512 L66.2950613,20.1953512 L66.2950613,11.775856 L59.5552932,11.775856 L59.5552932,12.8603849 Z M77.9361285,15.2229943 C77.9923767,14.671932 78.2335506,14.1024744 78.6034018,13.6489878 C79.0580106,13.1043239 79.731448,12.8163959 80.5505144,12.8163959 C81.2663306,12.8163959 81.9004713,13.0859285 82.3365876,13.5754061 C82.6925694,13.9945014 82.9090864,14.5631592 82.9661052,15.2229943 L77.9361285,15.2229943 Z M80.5505144,11.4415396 C79.2822329,11.4415396 78.216599,11.8846288 77.4668798,12.7196201 C76.7233247,13.5474131 76.3157179,14.6631342 76.3157179,15.8628343 C76.3157179,17.1329168 76.7071437,18.251837 77.4453051,19.0956261 C78.2266158,20.020195 79.3739252,20.5088728 80.7685725,20.5088728 C82.1470388,20.5088728 83.3475142,20.012197 83.9554572,19.5867033 L84.0117054,19.5491127 L83.3405795,18.3470132 C83.3405795,18.3470132 83.2804787,18.3814046 83.2727735,18.3854036 C82.4637239,18.8836791 81.7024468,19.1156211 80.8764458,19.1156211 C79.9394893,19.1156211 79.1735891,18.7765059 78.6581089,18.1334666 C78.3768679,17.7927518 78.0285913,17.232092 77.9376696,16.4850787 L84.4501332,16.4850787 L84.4532153,16.4138965 C84.5626296,14.5047738 84.0625599,13.4170457 83.6225911,12.8395901 C82.9121685,11.9382154 81.8211074,11.4415396 80.5505144,11.4415396 Z M89.7721382,19.1380155 C88.1995,19.1380155 87.0298455,17.9527118 87.0298455,16.3923019 C87.0298455,14.8326918 88.1995,13.6473882 89.7721382,13.6473882 C91.3232018,13.6473882 92.4913152,14.8326918 92.4913152,16.3923019 C92.4913152,17.9527118 91.3232018,19.1380155 89.7721382,19.1380155 Z M89.7721382,12.2637341 C89.074044,12.2637341 87.6470347,12.5932517 87.0298455,13.8673332 L86.9450879,13.8673332 C86.9450879,13.8673332 86.9674331,13.5386153 86.9674331,13.4282429 C87.1153736,11.3855536 88.2842576,10.0682829 90.0903644,9.84833792 L93.490684,9.31247188 L92.7687036,8.0183954 L89.9200787,8.46468383 C88.6024837,8.61904524 87.4975532,9.18930267 86.7324235,10.0906773 C85.9256855,11.056036 85.5219312,12.3741065 85.5219312,13.9993002 L85.5219312,16.3923019 C85.5219312,18.7429143 87.3488422,20.5216696 89.7721382,20.5216696 C92.1307103,20.5216696 94,18.6981255 94,16.3923019 C94,14.0648838 92.1522849,12.2637341 89.7721382,12.2637341 Z M25.078995,9.03814046 L17.301332,22.9506623 L9.5267511,9.03814046 L25.078995,9.03814046 Z M0,24 L17.878454,24 L26.8180663,8 L8.93884176,8 L0,24 Z" id="Fill-1"></path>
                    <path d="M32.7977765,5.03944316 C31.1945563,5.03944316 30,3.93271462 30,2.51972158 C30,1.13457077 31.1709795,0 32.8370711,0 C33.8508721,0 34.4638681,0.313225058 34.9904159,0.758700696 L34.3695611,1.39211137 C33.9294614,1.03016241 33.457926,0.786542923 32.8292122,0.786542923 C31.7761165,0.786542923 31.013801,1.55220418 31.013801,2.51972158 C31.013801,3.47331787 31.7761165,4.25290023 32.8292122,4.25290023 C33.5050795,4.25290023 33.9373203,4.00928074 34.4088557,3.61948956 L35.0297106,4.17633411 C34.4560092,4.70533643 33.8272954,5.03944316 32.7977765,5.03944316 Z M35.4147978,6 L35.4147978,4.19025522 L35.9492045,4.19025522 C36.405022,3.38979118 36.6486486,2.40139211 36.6486486,0.77262181 L36.6486486,0.0835266821 L40.483803,0.0835266821 L40.483803,4.19025522 L41.1675292,4.19025522 L41.0339275,6 L40.2323174,6 L40.2323174,4.95591647 L36.3578685,4.95591647 L36.2635614,6 L35.4147978,6 Z M36.9787234,4.19025522 L39.5171555,4.19025522 L39.5171555,0.856148492 L37.5760015,0.856148492 L37.5760015,1.41299304 C37.5760015,2.54060325 37.3559517,3.51508121 36.9787234,4.19025522 Z M42.0320107,4.95591647 L42.0320107,0.0835266821 L46.1107916,0.0835266821 L46.1107916,0.849187935 L42.9986582,0.849187935 L42.9986582,2.11600928 L45.7571401,2.11600928 L45.7571401,2.88167053 L42.9986582,2.88167053 L42.9986582,4.19025522 L46.1500863,4.19025522 L46.1500863,4.95591647 L42.0320107,4.95591647 Z M47.297489,5.01160093 C47.0852981,5.01160093 46.7788001,4.96983759 46.6294805,4.9350348 L46.7237876,4.23201856 C46.7945179,4.25290023 46.9202607,4.2737819 47.0381445,4.2737819 C47.596128,4.2737819 48.1148169,3.96055684 48.1148169,1.04408353 L48.1148169,0.0835266821 L51.8870999,0.0835266821 L51.8870999,4.95591647 L50.9204524,4.95591647 L50.9204524,0.856148492 L49.0185931,0.856148492 L49.0185931,1.29466357 C49.0185931,4.39211137 48.3820203,5.01160093 47.297489,5.01160093 Z M52.8380295,4.95591647 L55.2585777,0.0487238979 L56.1544949,0.0487238979 L58.5750431,4.95591647 L57.5533832,4.95591647 L56.9953997,3.77958237 L54.3940962,3.77958237 L53.8282538,4.95591647 L52.8380295,4.95591647 Z M54.7477477,3.02088167 L56.6417481,3.02088167 L55.6908185,1.07192575 L54.7477477,3.02088167 Z M59.5181139,4.95591647 L59.5181139,0.0835266821 L60.4847614,0.0835266821 L60.4847614,2.10904872 L63.1096416,2.10904872 L63.1096416,0.0835266821 L64.0762891,0.0835266821 L64.0762891,4.95591647 L63.1096416,4.95591647 L63.1096416,2.9025522 L60.4847614,2.9025522 L60.4847614,4.95591647 L59.5181139,4.95591647 Z M68.1157753,5.03944316 C66.426107,5.03944316 65.2472685,3.90487239 65.2472685,2.51972158 C65.2472685,1.14849188 66.4418248,0 68.1314932,0 C69.8211616,0 71,1.13457077 71,2.51972158 C71,3.89095128 69.8054437,5.03944316 68.1157753,5.03944316 Z M68.1314932,4.25290023 C69.2238835,4.25290023 69.986199,3.48027842 69.986199,2.51972158 C69.986199,1.57308585 69.2081656,0.786542923 68.1157753,0.786542923 C67.0233851,0.786542923 66.2610696,1.55916473 66.2610696,2.51972158 C66.2610696,3.46635731 67.0391029,4.25290023 68.1314932,4.25290023 Z" id="СДЕЛАНО"></path>
                </g>
            </g>
        </g>
    </g>
</svg>