<svg xmlns="http://www.w3.org/2000/svg"><symbol id="facebook" viewBox="0 0 40 40"><path d="M25.549 9.005L22.67 9c-3.233 0-5.324 2.126-5.324 5.415v2.496h-2.894a.45.45 0 0 0-.452.448v3.618c0 .246.203.448.452.448h2.894v9.126a.45.45 0 0 0 .452.449h3.777a.452.452 0 0 0 .452-.449v-9.126h3.384c.25 0 .452-.2.452-.448l.002-3.618a.45.45 0 0 0-.453-.448h-3.385v-2.117c0-1.016.245-1.532 1.581-1.532l1.94-.002a.45.45 0 0 0 .452-.447v-3.36a.45.45 0 0 0-.451-.448" fill-rule="evenodd"/></symbol><symbol id="icon-top" viewBox="0 0 29 27"><path d="M28.487 25.976h-4.135V11.524l2.864 2.982.001.001a.513.513 0 0 0 .74-.708L24.21 9.881a.46.46 0 0 0-.083-.07L14.856.158a.512.512 0 0 0-.729-.011L.56 13.468a.512.512 0 1 0 .719.73L14.475 1.241l8.853 9.217v15.519H5.47L5.44 14.79a.511.511 0 1 0-1.024.003l.028 11.183H.513a.512.512 0 1 0 0 1.024h27.974a.512.512 0 1 0 0-1.024z"/></symbol><symbol id="insta" viewBox="0 0 40 40"><path d="M19.52 15.368c-2.329 0-4.218 1.83-4.218 4.087 0 2.257 1.889 4.087 4.217 4.087 2.33 0 4.219-1.83 4.219-4.087 0-2.258-1.888-4.087-4.219-4.087zm8.106 2.512h-1.848c.175.571.269 1.177.269 1.802 0 3.494-2.922 6.326-6.528 6.326-3.604 0-6.527-2.832-6.527-6.326 0-.625.094-1.23.27-1.802h-1.928v8.872c.46 0 .835.376.835.835H26.79c0-.459.376-.835.835-.835V17.88zm-3.328-6.547c0 .52-.426.945-.946.945v2.264c.52 0 .946.425.946.945h2.373c0-.52.425-.944.945-.944v-2.265a.949.949 0 0 1-.946-.945h-2.372zM11.695 9h15.61C28.786 9 30 10.096 30 11.695v15.61C30 28.903 28.786 30 27.305 30h-15.61C10.213 30 9 28.903 9 27.305v-15.61C9 10.096 10.213 9 11.695 9z" fill-rule="evenodd"/></symbol><symbol id="menu-close" viewBox="0 0 16 16"><path d="M.226 1.335a.795.795 0 0 1 0-1.11c.31-.3.799-.3 1.11 0l6.66 6.669L14.67.224c.3-.299.8-.299 1.1 0a.782.782 0 0 1 0 1.11l-6.664 6.66 6.664 6.672a.78.78 0 1 1-1.1 1.109L7.996 9.103l-6.66 6.672c-.311.3-.8.3-1.11 0a.794.794 0 0 1 0-1.11l6.66-6.672-6.66-6.658" fill-rule="evenodd"/></symbol><symbol id="menu" viewBox="0 0 18 10"><path d="M0 0h18v1H0zm0 4h18v1H0zm0 4h18v1H0z" fill-rule="evenodd"/></symbol><symbol id="next" viewBox="0 0 22 61"><path d="M1.333 61L0 60.124l20.143-29.628L.002.871 1.325 0c.1.138.2.268.293.403C8.375 10.34 15.13 20.278 21.894 30.21c.15.221.136.363-.009.575-6.807 10-13.608 20.006-20.41 30.01L1.333 61" fill-rule="evenodd"/></symbol><symbol id="vk" viewBox="0 0 40 40"><path d="M29.56 21.431c.869.849 1.787 1.648 2.567 2.583.344.415.67.843.92 1.325.354.685.033 1.439-.581 1.48l-3.818-.002c-.986.082-1.771-.315-2.432-.988-.528-.539-1.018-1.112-1.526-1.668a3.603 3.603 0 0 0-.688-.611c-.521-.339-.973-.235-1.271.309-.303.553-.373 1.165-.403 1.782-.04.898-.312 1.135-1.215 1.176-1.931.091-3.763-.201-5.464-1.175-1.501-.858-2.664-2.07-3.677-3.442-1.972-2.672-3.482-5.607-4.84-8.625-.305-.68-.081-1.045.67-1.058 1.245-.024 2.49-.022 3.738-.002.506.008.84.298 1.037.777.674 1.657 1.498 3.233 2.534 4.695.275.389.557.778.957 1.052.443.303.779.203.988-.291.132-.313.19-.649.22-.984.098-1.153.11-2.304-.061-3.452-.107-.717-.511-1.181-1.226-1.316-.365-.069-.311-.205-.133-.414.306-.359.595-.582 1.17-.582h4.316c.68.133.83.439.923 1.122l.004 4.794c-.008.265.132 1.05.609 1.226.382.124.633-.182.862-.423 1.033-1.097 1.77-2.393 2.43-3.735.292-.591.543-1.203.787-1.815.18-.455.464-.678.975-.669l4.154.004c.123 0 .248.002.367.022.7.12.892.421.676 1.104-.341 1.073-1.004 1.966-1.652 2.864-.692.959-1.433 1.884-2.12 2.848-.631.881-.581 1.325.203 2.089" fill-rule="evenodd"/></symbol><symbol id="youtube" viewBox="0 0 21.94 21.94"><path d="M11 0a11 11 0 1 0 11 11A11 11 0 0 0 11 0z" fill="none"/><path d="M16.88 16.85a1.55 1.55 0 0 1-1.32 1.2 41.12 41.12 0 0 1-4.58.17 41.12 41.12 0 0 1-4.58-.17 1.55 1.55 0 0 1-1.32-1.2A13.1 13.1 0 0 1 4.85 14a13.11 13.11 0 0 1 .22-2.89 1.55 1.55 0 0 1 1.32-1.2A41.12 41.12 0 0 1 11 9.69a41.12 41.12 0 0 1 4.58.17 1.55 1.55 0 0 1 1.32 1.2 13.14 13.14 0 0 1 .19 2.94 13.1 13.1 0 0 1-.21 2.85zM5.76 11.78h.87v4.71h.82v-4.71h.89V11H5.76zm4.07 3.75c-.16.23-.32.35-.47.35s-.16-.06-.17-.17a2.28 2.28 0 0 1 0-.29v-3h-.74v3.23a2.08 2.08 0 0 0 .07.61.45.45 0 0 0 .48.3 1.19 1.19 0 0 0 .85-.5v.45h.74v-4.1h-.75zm2.88-3.17a1 1 0 0 0-.76.44V11h-.74v5.48H12v-.4a1 1 0 0 0 .76.45.59.59 0 0 0 .59-.46 3.25 3.25 0 0 0 .07-.82v-1.61a3.14 3.14 0 0 0-.07-.82.59.59 0 0 0-.63-.46zm2.36 0a1.05 1.05 0 0 0-.89.42 1.59 1.59 0 0 0-.23 1v1.43a1.58 1.58 0 0 0 .24 1 1.06 1.06 0 0 0 .9.42 1 1 0 0 0 .91-.53 1.05 1.05 0 0 0 .17-.44v-.59h-.75a4.85 4.85 0 0 1 0 .5.32.32 0 0 1-.33.3c-.25 0-.38-.19-.38-.57v-.72h1.48v-.85a1.6 1.6 0 0 0-.23-1 1 1 0 0 0-.88-.37zm.37 1.64h-.74v-.38q0-.57.37-.57c.24 0 .37.19.37.57z"/><path d="M12.65 15.32c0 .37-.11.55-.32.55a.53.53 0 0 1-.37-.18V13.2a.53.53 0 0 1 .37-.18c.21 0 .32.19.32.56zm-.46-10.19h.75v3a1.76 1.76 0 0 0 0 .29c0 .12.08.18.18.18s.31-.12.47-.35V5.13h.75v4.13h-.75v-.45a1.2 1.2 0 0 1-.85.51.46.46 0 0 1-.48-.32 2.08 2.08 0 0 1-.07-.61zM9.37 6.48a1.6 1.6 0 0 1 .23-1 1.11 1.11 0 0 1 1.74 0 1.62 1.62 0 0 1 .23 1v1.44a1.61 1.61 0 0 1-.23 1 1.11 1.11 0 0 1-1.74 0 1.6 1.6 0 0 1-.23-1zm1.1 2.16c.24 0 .36-.19.36-.57V6.33c0-.38-.12-.57-.36-.57s-.36.19-.36.57v1.73c.01.38.12.58.36.58zm-3.1-4.92L8 5.9l.57-2.17h.84L8.36 7v2.26h-.82V7A13.64 13.64 0 0 0 7 5.26l-.5-1.54z"/></symbol></svg>